<?xml version="1.0" encoding="UTF-8" standalone="no"?>
<!-- Created with Inkscape (http://www.inkscape.org/) -->

<svg
   xmlns:dc="http://purl.org/dc/elements/1.1/"
   xmlns:cc="http://creativecommons.org/ns#"
   xmlns:rdf="http://www.w3.org/1999/02/22-rdf-syntax-ns#"
   xmlns:svg="http://www.w3.org/2000/svg"
   xmlns="http://www.w3.org/2000/svg"
   xmlns:sodipodi="http://sodipodi.sourceforge.net/DTD/sodipodi-0.dtd"
   xmlns:inkscape="http://www.inkscape.org/namespaces/inkscape"
   id="svg11037"
   height="96"
   width="96"
   version="1.1"
   inkscape:version="0.48.5 r10040"
   sodipodi:docname="whatsapp.svg">
  <sodipodi:namedview
     pagecolor="#ffffff"
     bordercolor="#666666"
     borderopacity="1"
     objecttolerance="10"
     gridtolerance="10"
     guidetolerance="10"
     inkscape:pageopacity="0"
     inkscape:pageshadow="2"
     inkscape:window-width="1366"
     inkscape:window-height="713"
     id="namedview15"
     showgrid="false"
     inkscape:zoom="4.9166666"
     inkscape:cx="48.936548"
     inkscape:cy="43.726221"
     inkscape:window-x="0"
     inkscape:window-y="24"
     inkscape:window-maximized="1"
     inkscape:current-layer="layer1"
     showguides="true"
     inkscape:guide-bbox="true" />
  <defs
     id="defs11039">
    <linearGradient
       id="linearGradient11642"
       y2="1046.1"
       gradientUnits="userSpaceOnUse"
       y1="962.62"
       gradientTransform="matrix(1.15 0 0 1.15 -7.1999 -150.65)"
       x2="48"
       x1="48">
      <stop
         id="stop3624"
         style="stop-color:#d6d6d6"
         offset="0" />
      <stop
         id="stop3626"
         style="stop-color:#eaeaea"
         offset="1" />
    </linearGradient>
    <clipPath
       id="clipPath3009"
       clipPathUnits="userSpaceOnUse">
      <path
         id="path3011"
         style="opacity:.15;fill:#fff"
         d="m-2 956.36h-96v33.562l96 25.687v-59.25z" />
    </clipPath>
  </defs>
  <metadata
     id="metadata11042">
    <rdf:RDF>
      <cc:Work
         rdf:about="">
        <dc:format>image/svg+xml</dc:format>
        <dc:type
           rdf:resource="http://purl.org/dc/dcmitype/StillImage" />
        <dc:title />
      </cc:Work>
    </rdf:RDF>
  </metadata>
  <g
     id="layer1"
     transform="translate(0 -956.36)">
    <rect
       id="rect3867"
       style="fill:#2fb844;fill-opacity:1"
       rx="25"
       ry="25"
       height="92"
       width="92"
       y="958.36"
       x="2" />
    <path
       d="m 77.79999,1003.3293 c 0,16.1419 -13.185999,29.2273 -29.454664,29.2273 -5.163997,0 -10.01666,-1.32 -14.237995,-3.6367 l -16.307331,5.182 5.316669,-15.6813 c -2.682,-4.4047 -4.226666,-9.57 -4.226666,-15.0913 0,-16.14207 13.187331,-29.2274 29.45599,-29.2274 16.268665,0 29.453997,13.08533 29.453997,29.2274 z M 48.345326,978.75656 c -13.655995,0 -24.763992,11.02334 -24.763992,24.57274 0,5.3766 1.752669,10.356 4.717329,14.4073 l -3.093994,9.1253 9.51666,-3.0246 c 3.910002,2.5673 8.593997,4.0646 13.623997,4.0646 13.654666,0 24.763997,-11.0227 24.763997,-24.572 0,-13.54933 -11.108664,-24.57334 -24.763997,-24.57334 z m 14.873999,31.30404 c -0.182,-0.298 -0.662667,-0.478 -1.384,-0.8361 -0.722666,-0.3579 -4.273333,-2.0919 -4.933333,-2.3299 -0.662666,-0.2387 -1.144666,-0.3594 -1.626,0.358 -0.480666,0.7173 -1.864666,2.33 -2.286666,2.808 -0.420667,0.4786 -0.841333,0.5386 -1.564,0.18 -0.721333,-0.358 -3.047999,-1.1147 -5.805999,-3.5554 -2.145996,-1.8986 -3.59533,-4.2426 -4.016667,-4.9607 -0.420669,-0.7166 -0.04397,-1.104 0.316671,-1.4606 0.325329,-0.3214 0.722666,-0.8367 1.083326,-1.2546 0.362006,-0.4187 0.482006,-0.7167 0.721337,-1.1954 0.241997,-0.478 0.121329,-0.896 -0.06,-1.2553 -0.18,-0.358 -1.625331,-3.88337 -2.226668,-5.31803 -0.601329,-1.43334 -1.201997,-1.19467 -1.623995,-1.19467 -0.420668,0 -0.902665,-0.06 -1.384002,-0.06 -0.481329,0 -1.263995,0.17933 -1.926,0.89599 -0.661329,0.71734 -2.526,2.45068 -2.526,5.97531 0,3.5254 2.586,6.9313 2.948005,7.4087 0.36066,0.4773 4.993329,7.9466 12.333326,10.8153 7.341333,2.868 7.341333,1.9114 8.665332,1.792 1.322667,-0.1193 4.270666,-1.7327 4.874,-3.4053 0.600667,-1.674 0.600667,-3.1087 0.421333,-3.4073 z"
       style="fill:#ecf0f1;fill-rule:evenodd"
       id="WhatsApp"
       inkscape:connector-curvature="0" />
  </g>
</svg>
